<svg xmlns="http://www.w3.org/2000/svg" xmlns:xlink="http://www.w3.org/1999/xlink" width="65" height="65" viewBox="0 0 65 65"><defs><clipPath id="b"><rect width="65" height="65"/></clipPath></defs><g id="a" clip-path="url(#b)"><rect width="65" height="65" fill="#fff"/><g transform="translate(5.531 12.848)"><path d="M53.445-73.637a7.1,7.1,0,0,0-.219-2.843c-1.021-3.39-3.5-9.551-11.811-9.551-11.375,0-11.884,11.738-11.884,11.738s.134,5.189,2.224,7.109a43.111,43.111,0,0,1,4.314,5.918,59.668,59.668,0,0,1,.389,6.222,5.313,5.313,0,0,0,5.322,4.229,5.39,5.39,0,0,0,5.371-4.229,12.487,12.487,0,0,0,.207-2.151" transform="translate(-29.531 86.031)" fill="none" stroke="#0688ce" stroke-linecap="round" stroke-linejoin="round" stroke-width="1"/><path d="M44.785-77.006a2.667,2.667,0,0,0,0-1.239,6.254,6.254,0,0,0-6.525-5.286c-6.294,0-6.307,6.525-6.307,6.525a6.423,6.423,0,0,0,2.3,4.776,10.827,10.827,0,0,0,4.921,1.349,5.992,5.992,0,0,1,1.64.729,3.834,3.834,0,0,1,1.568,3.9C41.9-63,38.114-62.9,38.114-62.9" transform="translate(-26.303 89.364)" fill="none" stroke="#0688ce" stroke-linecap="round" stroke-linejoin="round" stroke-width="1"/><text transform="translate(19.469 24.152)" fill="#0688ce" font-size="11" font-family="ArialRoundedMTBold, Arial Rounded MT"><tspan x="0" y="0">ound</tspan></text></g></g></svg>