<svg xmlns="http://www.w3.org/2000/svg" width="71.047" height="49.215" viewBox="0 0 71.047 49.215"><defs><style>.a{fill:none;stroke:#10f2f1;stroke-linecap:round;stroke-linejoin:round;stroke-width:4px;}.b{fill:#10f2f1;font-size:18px;font-family:ArialRoundedMTBold, Arial Rounded MT;}</style></defs><g transform="translate(2 2)"><path class="a" d="M60.3-70.117a9.1,9.1,0,0,0-.281-3.651c-1.313-4.353-4.5-12.263-15.2-12.263-14.634,0-15.289,15.072-15.289,15.072s.172,6.662,2.861,9.127a55.361,55.361,0,0,1,5.55,7.6,76.465,76.465,0,0,1,.5,7.988,6.829,6.829,0,0,0,6.847,5.43,6.929,6.929,0,0,0,6.91-5.43,16,16,0,0,0,.266-2.762" transform="translate(-29.531 86.031)"/><path class="a" d="M48.461-75.153a3.417,3.417,0,0,0,0-1.591,8.039,8.039,0,0,0-8.395-6.787c-8.1,0-8.113,8.378-8.113,8.378a8.239,8.239,0,0,0,2.955,6.132,13.951,13.951,0,0,0,6.331,1.732,7.717,7.717,0,0,1,2.11.936,4.919,4.919,0,0,1,2.017,5.008c-.613,4.174-5.487,4.306-5.487,4.306" transform="translate(-24.684 91.02)"/><text class="b" transform="translate(25.047 31.171)"><tspan x="0" y="0">ound</tspan></text></g></svg>