<svg xmlns="http://www.w3.org/2000/svg" xmlns:xlink="http://www.w3.org/1999/xlink" width="65" height="65" viewBox="0 0 65 65"><defs><style>.a{clip-path:url(#b);}.b{fill:#6ed6d7;stroke:#fff;}.b,.c,.d{stroke-linecap:round;}.b,.c{stroke-linejoin:round;}.c,.d{fill:none;stroke:#707070;}</style><clipPath id="b"><rect width="65" height="65"/></clipPath></defs><g id="a" class="a"><g transform="translate(12.184 16)"><path class="b" d="M21.611,36.089v0a15.015,15.015,0,0,0,.921-3.958,29.79,29.79,0,0,0,0-3.828H0V0H38.295V28.3H29.06a11.888,11.888,0,0,1-2.525,5.322,8,8,0,0,1-4.921,2.467Zm-10.4-20.772v0l17.052,0Zm0-5.711v0l19.946,0Z" transform="translate(2.337)"/><path class="c" d="M233.631-67.075H209.875v-28.3h40.372v28.3h-9.736a11.478,11.478,0,0,1-2.661,5.322,8.6,8.6,0,0,1-5.193,2.466,14.256,14.256,0,0,0,.974-3.959A28.309,28.309,0,0,0,233.631-67.075Z" transform="translate(-209.875 95.375)"/><path class="d" d="M213.688-90.75h21.03" transform="translate(-205.769 100.356)"/><path class="d" d="M213.688-90.75h17.979" transform="translate(-205.769 106.068)"/></g></g></svg>