<svg xmlns="http://www.w3.org/2000/svg" xmlns:xlink="http://www.w3.org/1999/xlink" width="65" height="65" viewBox="0 0 65 65"><defs><style>.a{clip-path:url(#b);}.b{fill:#f65c5e;}.c,.d,.e,.g{fill:none;}.c,.d,.e{stroke:#707070;stroke-width:2px;}.c,.e{stroke-linecap:round;}.c{stroke-linejoin:round;}.f{stroke:none;}</style><clipPath id="b"><rect width="65" height="65"/></clipPath></defs><g id="a" class="a"><g transform="translate(22.833 14.313)"><path class="b" d="M119.561-80.188h12.4v5.312s-.606,5.469-6.2,5.469-6.2-5.469-6.2-5.469Z" transform="translate(-115.269 94.438)"/><path class="c" d="M107.333-77.75h19.333v7.336a14.132,14.132,0,0,1-.578,2.691c-.722,2.246-2.945,5.9-8.938,5.9-5.212,0-7.67-2.761-8.953-5.437a9.285,9.285,0,0,1-.865-3.151Z" transform="translate(-107.333 91)"/><g class="d" transform="translate(1.667)"><rect class="f" width="16" height="27" rx="8"/><rect class="g" x="1" y="1" width="14" height="25" rx="7"/></g><path class="d" d="M112.563-78V-89.062" transform="translate(-107.115 91.25)"/><path class="d" d="M112.563-76.646V-89.062" transform="translate(-104.302 89.896)"/><path class="d" d="M112.563-76.646V-89.062" transform="translate(-101.49 89.896)"/><path class="d" d="M112.563-78V-89.062" transform="translate(-98.677 91.25)"/><path class="e" d="M116-61.826v6.2" transform="translate(-106.333 91)"/><path class="e" d="M111.781-55.625h7.844" transform="translate(-106.036 92)"/></g></g></svg>